<?xml version="1.0" standalone="no"?>
<!DOCTYPE svg PUBLIC "-//W3C//DTD SVG 20010904//EN"
 "http://www.w3.org/TR/2001/REC-SVG-20010904/DTD/svg10.dtd">
<svg version="1.0" xmlns="http://www.w3.org/2000/svg"
 width="500.000000pt" height="500.000000pt" viewBox="0 0 500.000000 500.000000"
 preserveAspectRatio="xMidYMid meet">
<metadata>
Created by potrace 1.14, written by Peter Selinger 2001-2017
</metadata>
<g transform="translate(0.000000,500.000000) scale(0.100000,-0.100000)"
fill="#000000" stroke="none">
<path d="M4152 3650 l-43 -5 -215 -495 c-118 -272 -221 -508 -228 -525 -40
-89 -67 -149 -102 -232 -21 -51 -42 -93 -46 -93 -4 0 -10 10 -14 23 -4 12 -29
69 -55 126 -27 57 -49 105 -49 106 0 2 -16 38 -36 82 -20 43 -42 92 -49 108
-7 17 -30 65 -49 108 -20 42 -36 79 -36 81 0 2 -17 42 -39 88 -21 45 -47 103
-58 128 -12 25 -30 65 -41 90 -34 75 -72 159 -124 274 -27 61 -54 116 -60 124
-10 11 -84 13 -435 10 -481 -5 -429 6 -472 -98 -13 -30 -98 -226 -189 -435
-90 -209 -187 -432 -214 -495 -28 -63 -60 -137 -72 -165 -12 -27 -28 -65 -36
-83 -7 -18 -16 -29 -20 -25 -4 4 -27 51 -50 103 -23 52 -55 122 -70 155 -15
33 -42 93 -60 134 -17 40 -47 106 -65 146 -19 39 -73 159 -120 266 -48 107
-99 221 -114 254 -15 33 -43 94 -61 135 -19 41 -37 79 -40 83 -4 5 -124 8
-266 7 -480 -3 -557 -5 -561 -16 -2 -6 14 -48 35 -95 22 -46 49 -106 62 -134
12 -27 33 -75 47 -105 14 -30 66 -145 115 -255 50 -110 100 -222 113 -250 62
-137 89 -196 117 -260 16 -38 34 -77 38 -86 12 -24 193 -424 260 -574 32 -71
73 -164 92 -205 19 -41 56 -123 82 -182 l48 -107 62 -3 c33 -2 222 -2 418 0
345 2 357 3 363 22 3 11 29 41 57 67 28 27 58 55 67 64 9 8 84 78 166 154 83
77 155 144 161 150 6 5 57 53 114 105 101 93 162 150 227 212 l32 31 29 -64
c16 -35 38 -84 50 -109 11 -25 50 -112 87 -195 37 -82 81 -181 99 -220 18 -38
45 -100 62 -137 l29 -68 427 1 428 0 29 62 c16 34 56 125 89 202 60 140 361
833 387 890 7 17 52 120 100 230 48 110 95 218 105 240 10 22 55 126 100 230
45 105 91 210 102 235 30 67 44 100 66 150 l19 46 -376 -1 c-207 0 -395 -2
-419 -5z"/>
</g>
</svg>
