<?xml version="1.0" standalone="no"?>
<!DOCTYPE svg PUBLIC "-//W3C//DTD SVG 20010904//EN"
 "http://www.w3.org/TR/2001/REC-SVG-20010904/DTD/svg10.dtd">
<svg version="1.0" xmlns="http://www.w3.org/2000/svg"
 width="700.000000pt" height="700.000000pt" viewBox="0 0 700.000000 700.000000"
 preserveAspectRatio="xMidYMid meet">
<metadata>
Created by potrace 1.14, written by Peter Selinger 2001-2017
</metadata>
<g transform="translate(0.000000,700.000000) scale(0.100000,-0.100000)"
fill="#000000" stroke="none">
<path d="M862 6133 l3 -88 258 0 257 0 0 87 0 88 -260 0 -261 0 3 -87z"/>
<path d="M5639 6208 c-1 -15 -1 -125 0 -148 1 -13 37 -15 260 -15 l259 0 0 87
0 87 -259 1 c-203 0 -259 -2 -260 -12z"/>
<path d="M687 6035 c-3 -9 -1 -492 2 -506 0 -3 38 -5 84 -4 l82 0 3 261 2 260
-85 0 c-49 0 -86 -5 -88 -11z"/>
<path d="M1385 6040 c-3 -4 -5 -122 -5 -261 l-1 -254 -257 0 -257 0 -3 -87 -3
-88 260 0 260 0 3 88 3 87 83 -1 82 0 0 261 0 260 -80 1 c-45 0 -83 -3 -85 -6z"/>
<path d="M5466 6040 c-1 -3 -2 -120 -2 -260 l1 -255 83 1 c93 0 93 1 91 -86
-1 -25 -1 -55 0 -67 l1 -23 259 0 260 0 -2 85 c-1 49 2 86 8 88 6 2 45 3 88 2
l77 -1 0 261 0 261 -79 -1 c-44 0 -83 -4 -87 -8 -4 -4 -7 -119 -7 -257 1 -137
-2 -251 -6 -251 -3 -1 -120 -2 -258 -3 -219 -1 -253 1 -254 14 0 8 0 119 0
245 0 127 -2 237 -4 245 -4 12 -23 15 -86 16 -44 0 -81 -2 -83 -6z"/>
<path d="M862 5201 c-8 -6 -10 -3430 -2 -3432 3 -1 445 -3 983 -3 l977 -2 1
41 c3 202 3 445 -1 446 -3 1 -332 2 -732 3 -400 1 -729 4 -732 7 -4 4 -9 1177
-6 1436 l0 33 737 2 737 3 -1 238 c0 131 -3 240 -6 244 -4 3 -335 6 -737 6
l-730 0 0 21 c-1 11 -2 233 -3 491 l-2 470 -237 1 c-131 0 -241 -2 -246 -5z"/>
<path d="M5650 4715 l0 -492 -735 1 c-404 1 -736 -1 -736 -4 -1 -3 -2 -114 -3
-247 l-1 -243 737 0 738 0 -2 -737 -3 -738 -728 0 c-475 0 -731 3 -735 10 -4
6 -7 336 -7 735 l0 725 -246 3 -245 2 0 -737 0 -738 242 0 c209 0 243 -2 247
-15 1 -8 3 -117 2 -243 0 -125 2 -228 5 -228 3 -1 445 -3 983 -3 875 -2 977 0
978 14 1 20 1 3332 0 3386 l-1 41 -245 0 -245 -1 0 -491z"/>
<path d="M2823 2996 c0 -666 1 -735 16 -738 14 -3 420 -3 461 1 13 1 15 87 14
729 -1 400 -2 730 -3 735 0 4 -111 7 -244 7 l-244 0 0 -734z"/>
</g>
</svg>
